<svg width="10" height="14" viewBox="0 0 10 14" fill="none" xmlns="http://www.w3.org/2000/svg">
<rect width="10" height="14" fill="black"/>
<mask id="path-2-outside-1_97_82" maskUnits="userSpaceOnUse" x="0" y="0" width="10" height="14" fill="black">
<rect fill="white" width="10" height="14"/>
<path d="M9 7C9 10.3137 7.20914 13 5 13C2.79086 13 1 10.3137 1 7C1 3.68629 2.79086 1 5 1C7.20914 1 9 3.68629 9 7Z"/>
<path d="M2.54362 9.09723C2.45219 9.03815 2.39429 8.97723 2.3699 8.91446C2.34552 8.85169 2.33333 8.79815 2.33333 8.75385C2.33333 8.65415 2.36229 8.52123 2.42019 8.35508C2.48114 8.18523 2.5619 7.99138 2.66248 7.77354C2.76305 7.55569 2.87733 7.32862 3.00533 7.09231C2.91086 7.08492 2.82095 7.07938 2.73562 7.07569C2.65029 7.072 2.54057 7.07015 2.40648 7.07015H2.33333C2.376 6.93723 2.44305 6.84492 2.53448 6.79323C2.62895 6.73785 2.73867 6.71015 2.86362 6.71015C2.91543 6.71015 2.96876 6.71385 3.02362 6.72123C3.08152 6.72862 3.14095 6.736 3.2019 6.74338C3.35429 6.47754 3.50362 6.22646 3.6499 5.99015C3.79924 5.75385 3.93943 5.54154 4.07048 5.35323C4.20457 5.16123 4.32343 5.00431 4.42705 4.88246C4.57333 4.70523 4.68 4.61662 4.74705 4.61662C4.78971 4.61662 4.83695 4.63692 4.88876 4.67754C4.94362 4.71815 5 4.76985 5.05791 4.83262C5.02743 4.86215 4.98781 4.93785 4.93905 5.05969C4.89333 5.18154 4.84305 5.33662 4.78819 5.52492C4.73638 5.70954 4.68305 5.91262 4.62819 6.13415C4.57638 6.35569 4.52914 6.58092 4.48648 6.80985C4.44381 7.03877 4.40876 7.25846 4.38133 7.46892C4.35695 7.67569 4.34476 7.85846 4.34476 8.01723C4.34476 8.16492 4.35695 8.27569 4.38133 8.34954C4.40571 8.41969 4.44686 8.45477 4.50476 8.45477C4.57486 8.45477 4.66171 8.39015 4.76533 8.26092C4.86895 8.13169 4.98476 7.92123 5.11276 7.62954L5.19505 7.73477C5.10057 8.03754 4.97714 8.28677 4.82476 8.48246C4.67543 8.67815 4.51543 8.776 4.34476 8.776C4.19848 8.776 4.09486 8.70031 4.0339 8.54892C3.97295 8.39385 3.94248 8.18338 3.94248 7.91754C3.94248 7.83262 3.94705 7.73662 3.95619 7.62954C3.96533 7.52246 3.98057 7.38954 4.0019 7.23077C3.86781 7.20492 3.74895 7.18462 3.64533 7.16985C3.54171 7.15508 3.44267 7.14031 3.34819 7.12554C3.2019 7.43938 3.06019 7.76431 2.92305 8.10031C2.7859 8.43631 2.65943 8.76862 2.54362 9.09723ZM4.04762 6.95938C4.08724 6.74154 4.13295 6.52185 4.18476 6.30031C4.23962 6.07508 4.296 5.86092 4.35391 5.65785C4.41486 5.45108 4.47429 5.26646 4.53219 5.104C4.44076 5.19262 4.33867 5.32 4.2259 5.48615C4.11314 5.65231 3.99429 5.848 3.86933 6.07323C3.74743 6.29846 3.62248 6.544 3.49448 6.80985C3.5859 6.832 3.67733 6.856 3.76876 6.88185C3.86019 6.90769 3.95314 6.93354 4.04762 6.95938Z"/>
<path d="M6.28241 9.09723C6.10564 9.09723 5.9365 9.06031 5.77498 8.98646C5.6165 8.91262 5.48698 8.8 5.3864 8.64862C5.28583 8.49723 5.23555 8.30892 5.23555 8.08369C5.23555 7.88431 5.27212 7.72923 5.34526 7.61846C5.41841 7.504 5.50983 7.42462 5.61955 7.38031C5.72926 7.336 5.83593 7.31385 5.93955 7.31385C5.84202 7.43938 5.76736 7.56862 5.71555 7.70154C5.66679 7.83446 5.6424 7.96185 5.6424 8.08369C5.6424 8.20923 5.66831 8.32738 5.72012 8.43815C5.77498 8.54523 5.85574 8.632 5.9624 8.69846C6.06907 8.76862 6.20164 8.80369 6.36012 8.80369C6.49726 8.80369 6.62983 8.776 6.75783 8.72062C6.88888 8.66523 6.99555 8.58215 7.07783 8.47138C7.16317 8.36062 7.20583 8.22215 7.20583 8.056C7.20583 7.90462 7.16926 7.77538 7.09612 7.66831C7.02602 7.55754 6.9346 7.45969 6.82183 7.37477C6.70907 7.28615 6.59021 7.20308 6.46526 7.12554C6.34031 7.04431 6.22145 6.95754 6.10869 6.86523C5.99593 6.77292 5.90298 6.66585 5.82983 6.544C5.75974 6.42215 5.72469 6.27631 5.72469 6.10646C5.72469 5.95508 5.75517 5.79446 5.81612 5.62462C5.88012 5.45108 5.97002 5.28862 6.08583 5.13723C6.20164 4.98585 6.34183 4.864 6.5064 4.77169C6.67098 4.67569 6.85383 4.62769 7.05498 4.62769C7.26526 4.62769 7.41307 4.68123 7.49841 4.78831C7.58374 4.89538 7.6264 5.03569 7.6264 5.20923C7.6264 5.34585 7.6066 5.49169 7.56698 5.64677C7.52736 5.80185 7.4786 5.94954 7.42069 6.08985C7.36583 6.23015 7.3125 6.35015 7.26069 6.44985C7.19364 6.43138 7.14336 6.4 7.10983 6.35569C7.07631 6.30769 7.05955 6.24492 7.05955 6.16738C7.05955 6.08985 7.07174 6.00308 7.09612 5.90708C7.12355 5.81108 7.15402 5.71138 7.18755 5.608C7.22412 5.50462 7.2546 5.40492 7.27898 5.30892C7.30641 5.20923 7.32012 5.12246 7.32012 5.04862C7.32012 4.98215 7.30336 4.93046 7.26983 4.89354C7.23936 4.85661 7.17536 4.83815 7.07783 4.83815C6.93155 4.83815 6.79745 4.87692 6.67555 4.95446C6.55364 5.032 6.44698 5.12985 6.35555 5.248C6.26717 5.36615 6.1986 5.49169 6.14983 5.62462C6.10107 5.75385 6.07669 5.872 6.07669 5.97908C6.07669 6.112 6.11174 6.22646 6.18183 6.32246C6.25193 6.41477 6.34183 6.49969 6.45155 6.57723C6.56431 6.65477 6.68164 6.73231 6.80355 6.80985C6.9285 6.88738 7.04583 6.97415 7.15555 7.07015C7.26831 7.16615 7.35974 7.28062 7.42983 7.41354C7.49993 7.54646 7.53498 7.70892 7.53498 7.90092C7.53498 8.09292 7.4984 8.26277 7.42526 8.41046C7.35517 8.55815 7.25917 8.68185 7.13726 8.78154C7.01536 8.88492 6.87974 8.96246 6.7304 9.01415C6.58412 9.06954 6.43479 9.09723 6.28241 9.09723Z"/>
</mask>
<path d="M2.54362 9.09723C2.45219 9.03815 2.39429 8.97723 2.3699 8.91446C2.34552 8.85169 2.33333 8.79815 2.33333 8.75385C2.33333 8.65415 2.36229 8.52123 2.42019 8.35508C2.48114 8.18523 2.5619 7.99138 2.66248 7.77354C2.76305 7.55569 2.87733 7.32862 3.00533 7.09231C2.91086 7.08492 2.82095 7.07938 2.73562 7.07569C2.65029 7.072 2.54057 7.07015 2.40648 7.07015H2.33333C2.376 6.93723 2.44305 6.84492 2.53448 6.79323C2.62895 6.73785 2.73867 6.71015 2.86362 6.71015C2.91543 6.71015 2.96876 6.71385 3.02362 6.72123C3.08152 6.72862 3.14095 6.736 3.2019 6.74338C3.35429 6.47754 3.50362 6.22646 3.6499 5.99015C3.79924 5.75385 3.93943 5.54154 4.07048 5.35323C4.20457 5.16123 4.32343 5.00431 4.42705 4.88246C4.57333 4.70523 4.68 4.61662 4.74705 4.61662C4.78971 4.61662 4.83695 4.63692 4.88876 4.67754C4.94362 4.71815 5 4.76985 5.05791 4.83262C5.02743 4.86215 4.98781 4.93785 4.93905 5.05969C4.89333 5.18154 4.84305 5.33662 4.78819 5.52492C4.73638 5.70954 4.68305 5.91262 4.62819 6.13415C4.57638 6.35569 4.52914 6.58092 4.48648 6.80985C4.44381 7.03877 4.40876 7.25846 4.38133 7.46892C4.35695 7.67569 4.34476 7.85846 4.34476 8.01723C4.34476 8.16492 4.35695 8.27569 4.38133 8.34954C4.40571 8.41969 4.44686 8.45477 4.50476 8.45477C4.57486 8.45477 4.66171 8.39015 4.76533 8.26092C4.86895 8.13169 4.98476 7.92123 5.11276 7.62954L5.19505 7.73477C5.10057 8.03754 4.97714 8.28677 4.82476 8.48246C4.67543 8.67815 4.51543 8.776 4.34476 8.776C4.19848 8.776 4.09486 8.70031 4.0339 8.54892C3.97295 8.39385 3.94248 8.18338 3.94248 7.91754C3.94248 7.83262 3.94705 7.73662 3.95619 7.62954C3.96533 7.52246 3.98057 7.38954 4.0019 7.23077C3.86781 7.20492 3.74895 7.18462 3.64533 7.16985C3.54171 7.15508 3.44267 7.14031 3.34819 7.12554C3.2019 7.43938 3.06019 7.76431 2.92305 8.10031C2.7859 8.43631 2.65943 8.76862 2.54362 9.09723ZM4.04762 6.95938C4.08724 6.74154 4.13295 6.52185 4.18476 6.30031C4.23962 6.07508 4.296 5.86092 4.35391 5.65785C4.41486 5.45108 4.47429 5.26646 4.53219 5.104C4.44076 5.19262 4.33867 5.32 4.2259 5.48615C4.11314 5.65231 3.99429 5.848 3.86933 6.07323C3.74743 6.29846 3.62248 6.544 3.49448 6.80985C3.5859 6.832 3.67733 6.856 3.76876 6.88185C3.86019 6.90769 3.95314 6.93354 4.04762 6.95938Z" fill="white"/>
<path d="M6.28241 9.09723C6.10564 9.09723 5.9365 9.06031 5.77498 8.98646C5.6165 8.91262 5.48698 8.8 5.3864 8.64862C5.28583 8.49723 5.23555 8.30892 5.23555 8.08369C5.23555 7.88431 5.27212 7.72923 5.34526 7.61846C5.41841 7.504 5.50983 7.42462 5.61955 7.38031C5.72926 7.336 5.83593 7.31385 5.93955 7.31385C5.84202 7.43938 5.76736 7.56862 5.71555 7.70154C5.66679 7.83446 5.6424 7.96185 5.6424 8.08369C5.6424 8.20923 5.66831 8.32738 5.72012 8.43815C5.77498 8.54523 5.85574 8.632 5.9624 8.69846C6.06907 8.76862 6.20164 8.80369 6.36012 8.80369C6.49726 8.80369 6.62983 8.776 6.75783 8.72062C6.88888 8.66523 6.99555 8.58215 7.07783 8.47138C7.16317 8.36062 7.20583 8.22215 7.20583 8.056C7.20583 7.90462 7.16926 7.77538 7.09612 7.66831C7.02602 7.55754 6.9346 7.45969 6.82183 7.37477C6.70907 7.28615 6.59021 7.20308 6.46526 7.12554C6.34031 7.04431 6.22145 6.95754 6.10869 6.86523C5.99593 6.77292 5.90298 6.66585 5.82983 6.544C5.75974 6.42215 5.72469 6.27631 5.72469 6.10646C5.72469 5.95508 5.75517 5.79446 5.81612 5.62462C5.88012 5.45108 5.97002 5.28862 6.08583 5.13723C6.20164 4.98585 6.34183 4.864 6.5064 4.77169C6.67098 4.67569 6.85383 4.62769 7.05498 4.62769C7.26526 4.62769 7.41307 4.68123 7.49841 4.78831C7.58374 4.89538 7.6264 5.03569 7.6264 5.20923C7.6264 5.34585 7.6066 5.49169 7.56698 5.64677C7.52736 5.80185 7.4786 5.94954 7.42069 6.08985C7.36583 6.23015 7.3125 6.35015 7.26069 6.44985C7.19364 6.43138 7.14336 6.4 7.10983 6.35569C7.07631 6.30769 7.05955 6.24492 7.05955 6.16738C7.05955 6.08985 7.07174 6.00308 7.09612 5.90708C7.12355 5.81108 7.15402 5.71138 7.18755 5.608C7.22412 5.50462 7.2546 5.40492 7.27898 5.30892C7.30641 5.20923 7.32012 5.12246 7.32012 5.04862C7.32012 4.98215 7.30336 4.93046 7.26983 4.89354C7.23936 4.85661 7.17536 4.83815 7.07783 4.83815C6.93155 4.83815 6.79745 4.87692 6.67555 4.95446C6.55364 5.032 6.44698 5.12985 6.35555 5.248C6.26717 5.36615 6.1986 5.49169 6.14983 5.62462C6.10107 5.75385 6.07669 5.872 6.07669 5.97908C6.07669 6.112 6.11174 6.22646 6.18183 6.32246C6.25193 6.41477 6.34183 6.49969 6.45155 6.57723C6.56431 6.65477 6.68164 6.73231 6.80355 6.80985C6.9285 6.88738 7.04583 6.97415 7.15555 7.07015C7.26831 7.16615 7.35974 7.28062 7.42983 7.41354C7.49993 7.54646 7.53498 7.70892 7.53498 7.90092C7.53498 8.09292 7.4984 8.26277 7.42526 8.41046C7.35517 8.55815 7.25917 8.68185 7.13726 8.78154C7.01536 8.88492 6.87974 8.96246 6.7304 9.01415C6.58412 9.06954 6.43479 9.09723 6.28241 9.09723Z" fill="white"/>
<path d="M2.54362 9.09723L2.3808 9.34921L2.70018 9.55557L2.82656 9.19695L2.54362 9.09723ZM2.42019 8.35508L2.13781 8.25374L2.1369 8.25635L2.42019 8.35508ZM2.66248 7.77354L2.3901 7.64779L2.66248 7.77354ZM3.00533 7.09231L3.26912 7.23519L3.48903 6.8292L3.02871 6.79322L3.00533 7.09231ZM2.73562 7.07569L2.74859 6.77597L2.74859 6.77597L2.73562 7.07569ZM2.33333 7.07015L2.04769 6.97847L1.92196 7.37015H2.33333V7.07015ZM2.53448 6.79323L2.68214 7.05441L2.6862 7.05204L2.53448 6.79323ZM3.02362 6.72123L2.98359 7.01856L2.98567 7.01882L3.02362 6.72123ZM3.2019 6.74338L3.16582 7.04121L3.36327 7.06513L3.46218 6.89257L3.2019 6.74338ZM3.6499 5.99015L3.39629 5.82988L3.39483 5.83225L3.6499 5.99015ZM4.07048 5.35323L3.82452 5.18145L3.82424 5.18187L4.07048 5.35323ZM4.42705 4.88246L4.65561 5.07683L4.65841 5.07343L4.42705 4.88246ZM4.88876 4.67754L4.7036 4.91373L4.71025 4.91865L4.88876 4.67754ZM5.05791 4.83262L5.2667 5.04804L5.47687 4.84433L5.27841 4.6292L5.05791 4.83262ZM4.93905 5.05969L4.66046 4.9482L4.65817 4.95431L4.93905 5.05969ZM4.78819 5.52492L4.50015 5.44101L4.49935 5.44386L4.78819 5.52492ZM4.62819 6.13415L4.33696 6.06204L4.33607 6.06584L4.62819 6.13415ZM4.38133 7.46892L4.08383 7.43015L4.0834 7.43379L4.38133 7.46892ZM4.38133 8.34954L4.09642 8.4436L4.09796 8.44802L4.38133 8.34954ZM4.76533 8.26092L4.53128 8.07326L4.53128 8.07326L4.76533 8.26092ZM5.11276 7.62954L5.34909 7.44474L5.0398 7.04922L4.83805 7.50899L5.11276 7.62954ZM5.19505 7.73477L5.48143 7.82413L5.5283 7.67393L5.43137 7.54997L5.19505 7.73477ZM4.82476 8.48246L4.58805 8.29814L4.58627 8.30047L4.82476 8.48246ZM4.0339 8.54892L3.75469 8.65867L3.75562 8.66097L4.0339 8.54892ZM3.95619 7.62954L4.2551 7.65506L4.2551 7.65506L3.95619 7.62954ZM4.0019 7.23077L4.29923 7.27072L4.33698 6.98983L4.05868 6.93619L4.0019 7.23077ZM3.64533 7.16985L3.603 7.46684L3.603 7.46684L3.64533 7.16985ZM3.34819 7.12554L3.39453 6.82914L3.1716 6.79429L3.07628 6.9988L3.34819 7.12554ZM2.92305 8.10031L3.2008 8.21368L3.2008 8.21368L2.92305 8.10031ZM4.04762 6.95938L3.96846 7.24875L4.2842 7.33513L4.34278 7.01306L4.04762 6.95938ZM4.18476 6.30031L3.89327 6.22931L3.89264 6.23199L4.18476 6.30031ZM4.35391 5.65785L4.06614 5.57302L4.0654 5.57558L4.35391 5.65785ZM4.53219 5.104L4.81478 5.20472L4.3234 4.88858L4.53219 5.104ZM4.2259 5.48615L4.47414 5.65462L4.47414 5.65462L4.2259 5.48615ZM3.86933 6.07323L3.60699 5.92769L3.6055 5.93043L3.86933 6.07323ZM3.49448 6.80985L3.22418 6.6797L3.0632 7.01403L3.42383 7.10141L3.49448 6.80985ZM5.77498 8.98646L5.64826 9.2584L5.65024 9.2593L5.77498 8.98646ZM5.34526 7.61846L5.59564 7.78379L5.59806 7.78L5.34526 7.61846ZM5.61955 7.38031L5.73189 7.65848L5.73189 7.65848L5.61955 7.38031ZM5.93955 7.31385L6.17646 7.49789L6.55249 7.01385H5.93955V7.31385ZM5.71555 7.70154L5.43597 7.59257L5.4339 7.59822L5.71555 7.70154ZM5.72012 8.43815L5.4482 8.56534L5.45312 8.57494L5.72012 8.43815ZM5.9624 8.69846L6.1273 8.44774L6.12105 8.44384L5.9624 8.69846ZM6.75783 8.72062L6.64104 8.44427L6.6387 8.44528L6.75783 8.72062ZM7.07783 8.47138L6.84014 8.28827L6.83701 8.29249L7.07783 8.47138ZM7.09612 7.66831L6.84246 7.82883L6.8484 7.83752L7.09612 7.66831ZM6.82183 7.37477L6.63643 7.6107L6.64136 7.61441L6.82183 7.37477ZM6.46526 7.12554L6.30171 7.37712L6.30708 7.38045L6.46526 7.12554ZM5.82983 6.544L5.56975 6.69362L5.57262 6.6984L5.82983 6.544ZM5.81612 5.62462L5.53464 5.52081L5.53375 5.52328L5.81612 5.62462ZM6.5064 4.77169L6.65319 5.03338L6.65757 5.03083L6.5064 4.77169ZM7.56698 5.64677L7.27631 5.57251L7.27631 5.57251L7.56698 5.64677ZM7.42069 6.08985L7.14333 5.97538L7.14129 5.98061L7.42069 6.08985ZM7.26069 6.44985L7.18105 6.73908L7.41499 6.8035L7.52689 6.58819L7.26069 6.44985ZM7.10983 6.35569L6.8637 6.52759L6.8706 6.5367L7.10983 6.35569ZM7.09612 5.90708L6.80754 5.82462L6.80535 5.83323L7.09612 5.90708ZM7.18755 5.608L6.90462 5.50792L6.90218 5.51546L7.18755 5.608ZM7.27898 5.30892L6.98967 5.22933L6.98821 5.23508L7.27898 5.30892ZM7.26983 4.89354L7.03821 5.08472L7.04772 5.0952L7.26983 4.89354ZM6.67555 4.95446L6.83656 5.2076L6.83656 5.20759L6.67555 4.95446ZM6.35555 5.248L6.11825 5.06438L6.11532 5.06831L6.35555 5.248ZM6.14983 5.62462L6.43053 5.73053L6.43148 5.72794L6.14983 5.62462ZM6.18183 6.32246L5.9395 6.4994L5.94291 6.50389L6.18183 6.32246ZM6.45155 6.57723L6.27839 6.82224L6.28157 6.82443L6.45155 6.57723ZM6.80355 6.80985L6.64253 7.063L6.64537 7.06476L6.80355 6.80985ZM7.15555 7.07015L6.95798 7.29595L6.96107 7.29858L7.15555 7.07015ZM7.42983 7.41354L7.16447 7.55347L7.16447 7.55347L7.42983 7.41354ZM7.42526 8.41046L7.15639 8.2773L7.15424 8.28183L7.42526 8.41046ZM7.13726 8.78154L6.94732 8.54927L6.94322 8.55274L7.13726 8.78154ZM6.7304 9.01415L6.63223 8.73054L6.62418 8.73359L6.7304 9.01415ZM8.7 7C8.7 8.60589 8.26552 10.0462 7.57881 11.0762C6.89071 12.1084 5.97305 12.7 5 12.7V13.3C6.23608 13.3 7.31843 12.5485 8.07804 11.4091C8.83905 10.2675 9.3 8.70782 9.3 7H8.7ZM5 12.7C4.02695 12.7 3.10929 12.1084 2.42119 11.0762C1.73449 10.0462 1.3 8.60589 1.3 7H0.7C0.7 8.70782 1.16095 10.2675 1.92196 11.4091C2.68157 12.5485 3.76392 13.3 5 13.3V12.7ZM1.3 7C1.3 5.39411 1.73449 3.95382 2.42119 2.92377C3.10929 1.89162 4.02695 1.3 5 1.3V0.7C3.76392 0.7 2.68157 1.45153 1.92196 2.59095C1.16095 3.73247 0.7 5.29218 0.7 7H1.3ZM5 1.3C5.97305 1.3 6.89071 1.89162 7.57881 2.92377C8.26552 3.95382 8.7 5.39411 8.7 7H9.3C9.3 5.29218 8.83905 3.73247 8.07804 2.59095C7.31843 1.45153 6.23608 0.7 5 0.7V1.3ZM2.70643 8.84526C2.67514 8.82504 2.65769 8.80962 2.64907 8.80055C2.64058 8.79163 2.64456 8.79298 2.64955 8.80584L2.09026 9.02308C2.14774 9.17107 2.26635 9.27525 2.3808 9.34921L2.70643 8.84526ZM2.64955 8.80584C2.64153 8.7852 2.6372 8.77032 2.63499 8.76063C2.63274 8.75074 2.63333 8.74901 2.63333 8.75385H2.03333C2.03333 8.84941 2.0587 8.94184 2.09026 9.02308L2.64955 8.80584ZM2.63333 8.75385C2.63333 8.70412 2.64953 8.60861 2.70348 8.4538L2.1369 8.25635C2.07504 8.43385 2.03333 8.60419 2.03333 8.75385H2.63333ZM2.70256 8.45641C2.75976 8.29702 2.83685 8.11157 2.93485 7.89928L2.3901 7.64779C2.28696 7.8712 2.20253 8.07344 2.13782 8.25374L2.70256 8.45641ZM2.93485 7.89928C3.03245 7.68788 3.14381 7.46654 3.26912 7.23519L2.74155 6.94942C2.61086 7.1907 2.49365 7.4235 2.3901 7.64779L2.93485 7.89928ZM3.02871 6.79322C2.93114 6.78559 2.83775 6.77983 2.74859 6.77597L2.72265 7.37541C2.80416 7.37894 2.89058 7.38425 2.98196 7.3914L3.02871 6.79322ZM2.74859 6.77597C2.65723 6.77202 2.54276 6.77015 2.40648 6.77015V7.37015C2.53838 7.37015 2.64334 7.37198 2.72265 7.37541L2.74859 6.77597ZM2.40648 6.77015H2.33333V7.37015H2.40648V6.77015ZM2.61898 7.16184C2.64635 7.07658 2.67554 7.0581 2.68213 7.05438L2.38683 6.53208C2.21055 6.63174 2.10565 6.79788 2.04769 6.97847L2.61898 7.16184ZM2.6862 7.05204C2.72848 7.02725 2.78435 7.01015 2.86362 7.01015V6.41015C2.69298 6.41015 2.52943 6.44844 2.38276 6.53442L2.6862 7.05204ZM2.86362 7.01015C2.90117 7.01015 2.94111 7.01283 2.9836 7.01855L3.06364 6.42391C2.99641 6.41486 2.92969 6.41015 2.86362 6.41015V7.01015ZM2.98567 7.01882C3.04423 7.02629 3.10428 7.03375 3.16582 7.04121L3.23799 6.44556C3.17763 6.43825 3.11882 6.43094 3.06157 6.42364L2.98567 7.01882ZM3.46218 6.89257C3.61305 6.62937 3.76065 6.38122 3.90498 6.14806L3.39483 5.83225C3.24659 6.07171 3.09553 6.32571 2.94163 6.5942L3.46218 6.89257ZM3.90351 6.15042C4.05096 5.91709 4.18868 5.70857 4.31672 5.52459L3.82424 5.18187C3.69018 5.3745 3.54752 5.5906 3.3963 5.82989L3.90351 6.15042ZM4.31643 5.52501C4.44733 5.33758 4.56023 5.18894 4.65558 5.07681L4.19851 4.68811C4.08663 4.81968 3.96182 4.98488 3.82452 5.18145L4.31643 5.52501ZM4.65841 5.07343C4.72629 4.99119 4.77587 4.94092 4.80847 4.91383C4.8246 4.90043 4.83004 4.89823 4.82566 4.90047C4.82295 4.90185 4.79427 4.91662 4.74705 4.91662V4.31662C4.59964 4.31662 4.48436 4.40305 4.42506 4.45232C4.35099 4.51385 4.27409 4.5965 4.19568 4.69149L4.65841 5.07343ZM4.74705 4.91662C4.72019 4.91662 4.70229 4.91016 4.69599 4.90746C4.69023 4.90498 4.69278 4.9051 4.70367 4.91364L5.07385 4.44144C4.99632 4.38066 4.88461 4.31662 4.74705 4.31662V4.91662ZM4.71025 4.91865C4.74674 4.94567 4.78925 4.98383 4.8374 5.03603L5.27841 4.6292C5.21075 4.55586 5.1405 4.49064 5.06727 4.43643L4.71025 4.91865ZM4.84911 4.6172C4.79787 4.66686 4.76232 4.72889 4.73954 4.77242C4.71324 4.82267 4.68691 4.88229 4.66052 4.94823L5.21757 5.17116C5.23995 5.11525 5.25781 5.0761 5.27113 5.05066C5.27771 5.03807 5.28172 5.03168 5.28301 5.02974C5.28509 5.02662 5.2799 5.03524 5.2667 5.04804L4.84911 4.6172ZM4.65817 4.95431C4.60884 5.08579 4.55619 5.24869 4.50016 5.44102L5.07622 5.60883C5.12991 5.42454 5.17783 5.27728 5.21993 5.16507L4.65817 4.95431ZM4.49935 5.44386C4.44657 5.63194 4.39245 5.83805 4.33699 6.06205L4.9194 6.20626C4.97365 5.98718 5.0262 5.78713 5.07703 5.60598L4.49935 5.44386ZM4.33607 6.06584C4.2832 6.29191 4.23504 6.52159 4.19156 6.75488L4.7814 6.86481C4.82325 6.64026 4.86956 6.41948 4.92031 6.20247L4.33607 6.06584ZM4.19156 6.75488C4.14798 6.98867 4.11205 7.21378 4.08385 7.43015L4.67882 7.50769C4.70548 7.30314 4.73964 7.08887 4.7814 6.86481L4.19156 6.75488ZM4.0834 7.43379C4.05804 7.64886 4.04476 7.84376 4.04476 8.01723H4.64476C4.64476 7.87316 4.65587 7.70252 4.67927 7.50405L4.0834 7.43379ZM4.04476 8.01723C4.04476 8.17357 4.05671 8.32321 4.09646 8.44359L4.66621 8.25548C4.65719 8.22818 4.64476 8.15628 4.64476 8.01723H4.04476ZM4.09796 8.44802C4.12139 8.51545 4.16226 8.59402 4.23584 8.65675C4.31473 8.72401 4.40995 8.75477 4.50476 8.75477V8.15477C4.54167 8.15477 4.58737 8.16799 4.62511 8.20017C4.65755 8.22782 4.66566 8.25378 4.66471 8.25106L4.09796 8.44802ZM4.50476 8.75477C4.63092 8.75477 4.7328 8.69814 4.80154 8.64701C4.87327 8.59364 4.93908 8.52381 4.99939 8.44859L4.53128 8.07326C4.48797 8.12727 4.45854 8.15436 4.44341 8.16561C4.43651 8.17075 4.43752 8.16885 4.44627 8.16524C4.45543 8.16147 4.47579 8.15477 4.50476 8.15477V8.75477ZM4.99939 8.44859C5.12829 8.28783 5.25673 8.04803 5.38748 7.75009L4.83805 7.50899C4.71279 7.79443 4.60962 7.97555 4.53128 8.07326L4.99939 8.44859ZM4.87644 7.81434L4.95872 7.91957L5.43137 7.54997L5.34909 7.44474L4.87644 7.81434ZM4.90867 7.64541C4.82206 7.92294 4.71311 8.13755 4.58806 8.29815L5.06146 8.66678C5.24118 8.43599 5.37908 8.15213 5.48143 7.82413L4.90867 7.64541ZM4.58627 8.30047C4.46734 8.45632 4.38565 8.476 4.34476 8.476V9.076C4.64521 9.076 4.88352 8.89998 5.06325 8.66446L4.58627 8.30047ZM4.34476 8.476C4.33941 8.476 4.33568 8.47565 4.33336 8.47533C4.33107 8.47501 4.33004 8.4747 4.33001 8.47469C4.33001 8.47469 4.33064 8.47488 4.33165 8.47539C4.33267 8.4759 4.3336 8.47647 4.33429 8.47698C4.33857 8.4801 4.32736 8.47453 4.31219 8.43687L3.75562 8.66097C3.8014 8.7747 3.87248 8.88267 3.98037 8.96148C4.09057 9.04198 4.21728 9.076 4.34476 9.076V8.476ZM4.31311 8.43918C4.27163 8.33363 4.24248 8.16553 4.24248 7.91754H3.64248C3.64248 8.20124 3.67428 8.45406 3.7547 8.65866L4.31311 8.43918ZM4.24248 7.91754C4.24248 7.84302 4.2465 7.75576 4.2551 7.65506L3.65728 7.60402C3.64759 7.71747 3.64248 7.82221 3.64248 7.91754H4.24248ZM4.2551 7.65506C4.26369 7.55452 4.27826 7.42677 4.29923 7.27072L3.70458 7.19082C3.68288 7.35231 3.66698 7.4904 3.65728 7.60402L4.2551 7.65506ZM4.05868 6.93619C3.92115 6.90968 3.79731 6.88848 3.68767 6.87285L3.603 7.46684C3.70059 7.48075 3.81447 7.50016 3.94513 7.52535L4.05868 6.93619ZM3.68767 6.87285C3.58526 6.85825 3.48755 6.84368 3.39453 6.82914L3.30185 7.42194C3.39778 7.43693 3.49817 7.4519 3.603 7.46684L3.68767 6.87285ZM3.07628 6.9988C2.92784 7.31726 2.78419 7.64665 2.64529 7.98694L3.2008 8.21368C3.33619 7.88197 3.47597 7.56151 3.6201 7.25228L3.07628 6.9988ZM2.64529 7.98694C2.50639 8.32726 2.37817 8.66412 2.26068 8.99752L2.82656 9.19695C2.94069 8.87311 3.06542 8.54535 3.2008 8.21368L2.64529 7.98694ZM4.34278 7.01306C4.38148 6.80025 4.42617 6.58544 4.47688 6.36862L3.89264 6.23199C3.83973 6.45825 3.793 6.68282 3.75246 6.9057L4.34278 7.01306ZM4.47624 6.3713C4.53027 6.14948 4.58566 5.93911 4.64241 5.74011L4.0654 5.57558C4.00634 5.78274 3.94897 6.00067 3.89328 6.22932L4.47624 6.3713ZM4.64166 5.74267C4.70141 5.53999 4.75914 5.36083 4.81478 5.20472L4.2496 5.00328C4.18944 5.17209 4.12831 5.36216 4.06615 5.57302L4.64166 5.74267ZM4.3234 4.88858C4.21136 4.99717 4.09617 5.14309 3.97767 5.31769L4.47414 5.65462C4.58117 5.49691 4.67017 5.38806 4.74098 5.31942L4.3234 4.88858ZM3.97767 5.31769C3.8587 5.493 3.73516 5.69668 3.607 5.92769L4.13167 6.21877C4.25341 5.99932 4.36759 5.81162 4.47414 5.65462L3.97767 5.31769ZM3.6055 5.93043C3.48103 6.1604 3.35393 6.41021 3.22418 6.6797L3.76478 6.93999C3.89102 6.67779 4.01383 6.43653 4.13317 6.21603L3.6055 5.93043ZM3.42383 7.10141C3.51155 7.12266 3.59932 7.1457 3.68715 7.17053L3.85037 6.59316C3.75534 6.5663 3.66026 6.54134 3.56512 6.51828L3.42383 7.10141ZM3.68715 7.17053C3.77942 7.19662 3.87319 7.22269 3.96846 7.24875L4.12678 6.67002C4.0331 6.64439 3.94096 6.61877 3.85037 6.59316L3.68715 7.17053ZM6.28241 8.79723C6.1489 8.79723 6.02228 8.76966 5.89971 8.71362L5.65024 9.2593C5.85072 9.35096 6.06239 9.39723 6.28241 9.39723V8.79723ZM5.90169 8.71454C5.79526 8.66494 5.70759 8.58993 5.63629 8.48261L5.13652 8.81462C5.26636 9.01007 5.43774 9.16029 5.64826 9.25839L5.90169 8.71454ZM5.63629 8.48261C5.57546 8.39104 5.53555 8.26405 5.53555 8.08369H4.93555C4.93555 8.3538 4.99621 8.60342 5.13652 8.81462L5.63629 8.48261ZM5.53555 8.08369C5.53555 7.91544 5.56731 7.82662 5.59561 7.78377L5.09492 7.45315C4.97693 7.63184 4.93555 7.85318 4.93555 8.08369H5.53555ZM5.59806 7.78C5.64278 7.71001 5.68824 7.67611 5.73189 7.65848L5.50721 7.10214C5.33142 7.17313 5.19403 7.29799 5.09247 7.45692L5.59806 7.78ZM5.73189 7.65848C5.81093 7.62656 5.8795 7.61385 5.93955 7.61385V7.01385C5.79236 7.01385 5.6476 7.04544 5.50721 7.10214L5.73189 7.65848ZM5.70263 7.1298C5.58936 7.27561 5.49947 7.42983 5.43603 7.59259L5.99507 7.81049C6.03525 7.7074 6.09468 7.60316 6.17646 7.49789L5.70263 7.1298ZM5.4339 7.59822C5.37493 7.75897 5.3424 7.92139 5.3424 8.08369H5.9424C5.9424 8.0023 5.95864 7.90995 5.99719 7.80486L5.4339 7.59822ZM5.3424 8.08369C5.3424 8.25195 5.37745 8.41362 5.44837 8.56526L5.99186 8.31105C5.95917 8.24115 5.9424 8.16651 5.9424 8.08369H5.3424ZM5.45312 8.57494C5.53389 8.73259 5.65312 8.85922 5.80376 8.95308L6.12105 8.44384C6.05836 8.40478 6.01607 8.35787 5.98712 8.30137L5.45312 8.57494ZM5.79756 8.94911C5.96381 9.05845 6.15723 9.10369 6.36012 9.10369V8.50369C6.24606 8.50369 6.17434 8.47878 6.12725 8.44781L5.79756 8.94911ZM6.36012 9.10369C6.53895 9.10369 6.71201 9.06732 6.87697 8.99595L6.6387 8.44528C6.54765 8.48468 6.45557 8.50369 6.36012 8.50369V9.10369ZM6.87462 8.99695C7.05336 8.92141 7.20344 8.80539 7.31866 8.65028L6.83701 8.29249C6.78766 8.35892 6.7244 8.40905 6.64105 8.44428L6.87462 8.99695ZM7.31549 8.65447C7.44847 8.48185 7.50583 8.27548 7.50583 8.056H6.90583C6.90583 8.16882 6.87786 8.23938 6.84018 8.2883L7.31549 8.65447ZM7.50583 8.056C7.50583 7.85461 7.45646 7.66396 7.34384 7.49909L6.8484 7.83752C6.88207 7.88681 6.90583 7.95462 6.90583 8.056H7.50583ZM7.34963 7.50789C7.25873 7.36424 7.14176 7.24015 7.00231 7.13513L6.64136 7.61441C6.72743 7.67923 6.79332 7.75084 6.84261 7.82873L7.34963 7.50789ZM7.0072 7.13889C6.88552 7.04326 6.75757 6.95386 6.62344 6.87063L6.30708 7.38045C6.42286 7.4523 6.53262 7.52904 6.63647 7.61065L7.0072 7.13889ZM6.62878 6.87402C6.5128 6.79862 6.40281 6.7183 6.29872 6.63309L5.91866 7.09737C6.04009 7.19677 6.16782 7.28999 6.30175 7.37706L6.62878 6.87402ZM6.29872 6.63309C6.21197 6.56208 6.14198 6.48111 6.08705 6.3896L5.57262 6.6984C5.66397 6.85059 5.77989 6.98377 5.91866 7.09737L6.29872 6.63309ZM6.08987 6.3944C6.05091 6.32668 6.02469 6.23472 6.02469 6.10646H5.42469C5.42469 6.31789 5.46856 6.51763 5.56979 6.6936L6.08987 6.3944ZM6.02469 6.10646C6.02469 5.99553 6.04702 5.86936 6.09849 5.72595L5.53375 5.52328C5.46331 5.71956 5.42469 5.91462 5.42469 6.10646H6.02469ZM6.09759 5.72842C6.15088 5.58391 6.22598 5.44778 6.32411 5.31951L5.84756 4.95495C5.71407 5.12945 5.60936 5.31825 5.53465 5.52081L6.09759 5.72842ZM6.32411 5.31951C6.41538 5.20019 6.52455 5.10549 6.65316 5.03334L6.35965 4.51004C6.15912 4.62251 5.9879 4.7715 5.84756 4.95495L6.32411 5.31951ZM6.65757 5.03083C6.77367 4.9631 6.90387 4.92769 7.05498 4.92769V4.32769C6.8038 4.32769 6.56828 4.38829 6.35524 4.51256L6.65757 5.03083ZM7.05498 4.92769C7.22364 4.92769 7.26045 4.97109 7.26379 4.97528L7.73302 4.60134C7.56569 4.39138 7.30689 4.32769 7.05498 4.32769V4.92769ZM7.26379 4.97528C7.29655 5.01638 7.3264 5.08513 7.3264 5.20923H7.9264C7.9264 4.98626 7.87093 4.77439 7.73302 4.60134L7.26379 4.97528ZM7.3264 5.20923C7.3264 5.31695 7.31076 5.43767 7.27631 5.57251L7.85764 5.72103C7.90243 5.54572 7.9264 5.37474 7.9264 5.20923H7.3264ZM7.27631 5.57251C7.24 5.71463 7.19561 5.84884 7.14338 5.9754L7.698 6.20429C7.76158 6.05023 7.81471 5.88906 7.85764 5.72103L7.27631 5.57251ZM7.14129 5.98061C7.0891 6.11409 7.04006 6.22383 6.99449 6.3115L7.52689 6.58819C7.58494 6.47648 7.64257 6.34621 7.70009 6.19909L7.14129 5.98061ZM7.34033 6.16061C7.33004 6.15778 7.32827 6.15593 7.33153 6.15796C7.33321 6.15901 7.33593 6.16091 7.3392 6.16386C7.34249 6.16684 7.34589 6.17047 7.34907 6.17468L6.8706 6.5367C6.95308 6.64572 7.06664 6.70758 7.18105 6.73908L7.34033 6.16061ZM7.35579 6.18392C7.36112 6.19155 7.36231 6.19651 7.36196 6.19522C7.36148 6.19339 7.35955 6.1849 7.35955 6.16738H6.75955C6.75955 6.28669 6.78538 6.41507 6.86388 6.52747L7.35579 6.18392ZM7.35955 6.16738C7.35955 6.12051 7.36703 6.0591 7.38689 5.98092L6.80535 5.83323C6.77644 5.94706 6.75955 6.05918 6.75955 6.16738H7.35955ZM7.38458 5.98949C7.41096 5.89717 7.44039 5.80086 7.47292 5.70054L6.90218 5.51546C6.86766 5.62191 6.83614 5.72499 6.80766 5.82466L7.38458 5.98949ZM7.47037 5.70805C7.50967 5.59695 7.54289 5.4885 7.56975 5.38277L6.98821 5.23508C6.9663 5.32135 6.93857 5.41228 6.90472 5.50795L7.47037 5.70805ZM7.56823 5.38851C7.60018 5.27238 7.62012 5.15768 7.62012 5.04862H7.02012C7.02012 5.08724 7.01263 5.14608 6.98972 5.22934L7.56823 5.38851ZM7.62012 5.04862C7.62012 4.93285 7.59031 4.80022 7.49194 4.69188L7.04772 5.0952C7.03342 5.07945 7.02572 5.06347 7.02218 5.05254C7.01898 5.04269 7.02012 5.04006 7.02012 5.04862H7.62012ZM7.5012 4.70257C7.43511 4.6225 7.3502 4.58339 7.28212 4.56375C7.21374 4.54403 7.14296 4.53815 7.07783 4.53815V5.13815C7.093 5.13815 7.10371 5.13888 7.11062 5.13967C7.11769 5.14048 7.11893 5.14114 7.11583 5.14025C7.11175 5.13907 7.07408 5.12765 7.03847 5.08451L7.5012 4.70257ZM7.07783 4.53815C6.87527 4.53815 6.6852 4.59278 6.51454 4.70133L6.83656 5.20759C6.9097 5.16107 6.98782 5.13815 7.07783 5.13815V4.53815ZM6.51454 4.70133C6.3624 4.7981 6.23019 4.91979 6.11829 5.0644L6.59281 5.43159C6.66376 5.3399 6.74489 5.2659 6.83656 5.2076L6.51454 4.70133ZM6.11532 5.06831C6.01024 5.20878 5.92739 5.3599 5.86819 5.5213L6.43148 5.72794C6.4698 5.62348 6.5241 5.52352 6.59578 5.42769L6.11532 5.06831ZM5.86915 5.51871C5.81114 5.67245 5.77669 5.82703 5.77669 5.97908H6.37669C6.37669 5.91697 6.391 5.83524 6.43052 5.73052L5.86915 5.51871ZM5.77669 5.97908C5.77669 6.16772 5.82756 6.34599 5.93955 6.49937L6.42412 6.14555C6.39592 6.10693 6.37669 6.05628 6.37669 5.97908H5.77669ZM5.94291 6.50389C6.03423 6.62415 6.14754 6.72974 6.2784 6.82222L6.62469 6.33224C6.53613 6.26965 6.46962 6.20539 6.42076 6.14103L5.94291 6.50389ZM6.28157 6.82443C6.39744 6.90411 6.51778 6.98362 6.64254 7.06298L6.96456 6.55671C6.84551 6.48099 6.73118 6.40543 6.62153 6.33003L6.28157 6.82443ZM6.64537 7.06476C6.75654 7.13375 6.8607 7.21079 6.958 7.29593L7.3531 6.84438C7.23097 6.73752 7.10046 6.64102 6.96173 6.55494L6.64537 7.06476ZM6.96107 7.29858C7.04436 7.36949 7.1119 7.45378 7.16447 7.55347L7.6952 7.2736C7.60758 7.10745 7.49226 6.96282 7.35002 6.84172L6.96107 7.29858ZM7.16447 7.55347C7.20637 7.63294 7.23498 7.7445 7.23498 7.90092H7.83498C7.83498 7.67334 7.79348 7.45999 7.6952 7.2736L7.16447 7.55347ZM7.23498 7.90092C7.23498 8.05434 7.20594 8.17733 7.15642 8.27732L7.6941 8.5436C7.79087 8.3482 7.83498 8.13151 7.83498 7.90092H7.23498ZM7.15424 8.28183C7.10243 8.39099 7.03356 8.4788 6.94735 8.54931L7.32718 9.01377C7.48478 8.88489 7.6079 8.72532 7.69629 8.53909L7.15424 8.28183ZM6.94322 8.55274C6.8493 8.6324 6.74612 8.69125 6.63227 8.73066L6.82854 9.29765C7.01336 9.23367 7.18142 9.13745 7.3313 9.01034L6.94322 8.55274ZM6.62418 8.73359C6.51092 8.77647 6.39753 8.79723 6.28241 8.79723V9.39723C6.47204 9.39723 6.65732 9.36261 6.83663 9.29472L6.62418 8.73359Z" fill="white" mask="url(#path-2-outside-1_97_82)"/>
</svg>
