<svg width="44" height="54" viewBox="0 0 44 54" fill="none" xmlns="http://www.w3.org/2000/svg">
<mask id="path-1-outside-1_36_152" maskUnits="userSpaceOnUse" x="0" y="0" width="44" height="54" fill="black">
<rect fill="white" width="44" height="54"/>
<path d="M43 27C43 41.3594 33.598 53 22 53C10.402 53 1 41.3594 1 27C1 12.6406 10.402 1 22 1C33.598 1 43 12.6406 43 27Z"/>
<path d="M9.104 36.088C8.624 35.832 8.32 35.568 8.192 35.296C8.064 35.024 8 34.792 8 34.6C8 34.168 8.152 33.592 8.456 32.872C8.776 32.136 9.2 31.296 9.728 30.352C10.256 29.408 10.856 28.424 11.528 27.4C11.032 27.368 10.56 27.344 10.112 27.328C9.664 27.312 9.088 27.304 8.384 27.304H8C8.224 26.728 8.576 26.328 9.056 26.104C9.552 25.864 10.128 25.744 10.784 25.744C11.056 25.744 11.336 25.76 11.624 25.792C11.928 25.824 12.24 25.856 12.56 25.888C13.36 24.736 14.144 23.648 14.912 22.624C15.696 21.6 16.432 20.68 17.12 19.864C17.824 19.032 18.448 18.352 18.992 17.824C19.76 17.056 20.32 16.672 20.672 16.672C20.896 16.672 21.144 16.76 21.416 16.936C21.704 17.112 22 17.336 22.304 17.608C22.144 17.736 21.936 18.064 21.68 18.592C21.44 19.12 21.176 19.792 20.888 20.608C20.616 21.408 20.336 22.288 20.048 23.248C19.776 24.208 19.528 25.184 19.304 26.176C19.08 27.168 18.896 28.12 18.752 29.032C18.624 29.928 18.56 30.72 18.56 31.408C18.56 32.048 18.624 32.528 18.752 32.848C18.88 33.152 19.096 33.304 19.4 33.304C19.768 33.304 20.224 33.024 20.768 32.464C21.312 31.904 21.92 30.992 22.592 29.728L23.024 30.184C22.528 31.496 21.88 32.576 21.08 33.424C20.296 34.272 19.456 34.696 18.56 34.696C17.792 34.696 17.248 34.368 16.928 33.712C16.608 33.04 16.448 32.128 16.448 30.976C16.448 30.608 16.472 30.192 16.52 29.728C16.568 29.264 16.648 28.688 16.76 28C16.056 27.888 15.432 27.8 14.888 27.736C14.344 27.672 13.824 27.608 13.328 27.544C12.56 28.904 11.816 30.312 11.096 31.768C10.376 33.224 9.712 34.664 9.104 36.088ZM17 26.824C17.208 25.88 17.448 24.928 17.72 23.968C18.008 22.992 18.304 22.064 18.608 21.184C18.928 20.288 19.24 19.488 19.544 18.784C19.064 19.168 18.528 19.72 17.936 20.44C17.344 21.16 16.72 22.008 16.064 22.984C15.424 23.96 14.768 25.024 14.096 26.176C14.576 26.272 15.056 26.376 15.536 26.488C16.016 26.6 16.504 26.712 17 26.824Z"/>
<path d="M28.7326 36.088C27.8046 36.088 26.9166 35.928 26.0686 35.608C25.2366 35.288 24.5566 34.8 24.0286 34.144C23.5006 33.488 23.2366 32.672 23.2366 31.696C23.2366 30.832 23.4286 30.16 23.8126 29.68C24.1966 29.184 24.6766 28.84 25.2526 28.648C25.8286 28.456 26.3886 28.36 26.9326 28.36C26.4206 28.904 26.0286 29.464 25.7566 30.04C25.5006 30.616 25.3726 31.168 25.3726 31.696C25.3726 32.24 25.5086 32.752 25.7806 33.232C26.0686 33.696 26.4926 34.072 27.0526 34.36C27.6126 34.664 28.3086 34.816 29.1406 34.816C29.8606 34.816 30.5566 34.696 31.2286 34.456C31.9166 34.216 32.4766 33.856 32.9086 33.376C33.3566 32.896 33.5806 32.296 33.5806 31.576C33.5806 30.92 33.3886 30.36 33.0046 29.896C32.6366 29.416 32.1566 28.992 31.5646 28.624C30.9726 28.24 30.3486 27.88 29.6926 27.544C29.0366 27.192 28.4126 26.816 27.8206 26.416C27.2286 26.016 26.7406 25.552 26.3566 25.024C25.9886 24.496 25.8046 23.864 25.8046 23.128C25.8046 22.472 25.9646 21.776 26.2846 21.04C26.6206 20.288 27.0926 19.584 27.7006 18.928C28.3086 18.272 29.0446 17.744 29.9086 17.344C30.7726 16.928 31.7326 16.72 32.7886 16.72C33.8926 16.72 34.6686 16.952 35.1166 17.416C35.5646 17.88 35.7886 18.488 35.7886 19.24C35.7886 19.832 35.6846 20.464 35.4766 21.136C35.2686 21.808 35.0126 22.448 34.7086 23.056C34.4206 23.664 34.1406 24.184 33.8686 24.616C33.5166 24.536 33.2526 24.4 33.0766 24.208C32.9006 24 32.8126 23.728 32.8126 23.392C32.8126 23.056 32.8766 22.68 33.0046 22.264C33.1486 21.848 33.3086 21.416 33.4846 20.968C33.6766 20.52 33.8366 20.088 33.9646 19.672C34.1086 19.24 34.1806 18.864 34.1806 18.544C34.1806 18.256 34.0926 18.032 33.9166 17.872C33.7566 17.712 33.4206 17.632 32.9086 17.632C32.1406 17.632 31.4366 17.8 30.7966 18.136C30.1566 18.472 29.5966 18.896 29.1166 19.408C28.6526 19.92 28.2926 20.464 28.0366 21.04C27.7806 21.6 27.6526 22.112 27.6526 22.576C27.6526 23.152 27.8366 23.648 28.2046 24.064C28.5726 24.464 29.0446 24.832 29.6206 25.168C30.2126 25.504 30.8286 25.84 31.4686 26.176C32.1246 26.512 32.7406 26.888 33.3166 27.304C33.9086 27.72 34.3886 28.216 34.7566 28.792C35.1246 29.368 35.3086 30.072 35.3086 30.904C35.3086 31.736 35.1166 32.472 34.7326 33.112C34.3646 33.752 33.8606 34.288 33.2206 34.72C32.5806 35.168 31.8686 35.504 31.0846 35.728C30.3166 35.968 29.5326 36.088 28.7326 36.088Z"/>
</mask>
<path d="M9.104 36.088C8.624 35.832 8.32 35.568 8.192 35.296C8.064 35.024 8 34.792 8 34.6C8 34.168 8.152 33.592 8.456 32.872C8.776 32.136 9.2 31.296 9.728 30.352C10.256 29.408 10.856 28.424 11.528 27.4C11.032 27.368 10.56 27.344 10.112 27.328C9.664 27.312 9.088 27.304 8.384 27.304H8C8.224 26.728 8.576 26.328 9.056 26.104C9.552 25.864 10.128 25.744 10.784 25.744C11.056 25.744 11.336 25.76 11.624 25.792C11.928 25.824 12.24 25.856 12.56 25.888C13.36 24.736 14.144 23.648 14.912 22.624C15.696 21.6 16.432 20.68 17.12 19.864C17.824 19.032 18.448 18.352 18.992 17.824C19.76 17.056 20.32 16.672 20.672 16.672C20.896 16.672 21.144 16.76 21.416 16.936C21.704 17.112 22 17.336 22.304 17.608C22.144 17.736 21.936 18.064 21.68 18.592C21.44 19.12 21.176 19.792 20.888 20.608C20.616 21.408 20.336 22.288 20.048 23.248C19.776 24.208 19.528 25.184 19.304 26.176C19.08 27.168 18.896 28.12 18.752 29.032C18.624 29.928 18.56 30.72 18.56 31.408C18.56 32.048 18.624 32.528 18.752 32.848C18.88 33.152 19.096 33.304 19.4 33.304C19.768 33.304 20.224 33.024 20.768 32.464C21.312 31.904 21.92 30.992 22.592 29.728L23.024 30.184C22.528 31.496 21.88 32.576 21.08 33.424C20.296 34.272 19.456 34.696 18.56 34.696C17.792 34.696 17.248 34.368 16.928 33.712C16.608 33.04 16.448 32.128 16.448 30.976C16.448 30.608 16.472 30.192 16.52 29.728C16.568 29.264 16.648 28.688 16.76 28C16.056 27.888 15.432 27.8 14.888 27.736C14.344 27.672 13.824 27.608 13.328 27.544C12.56 28.904 11.816 30.312 11.096 31.768C10.376 33.224 9.712 34.664 9.104 36.088ZM17 26.824C17.208 25.88 17.448 24.928 17.72 23.968C18.008 22.992 18.304 22.064 18.608 21.184C18.928 20.288 19.24 19.488 19.544 18.784C19.064 19.168 18.528 19.72 17.936 20.44C17.344 21.16 16.72 22.008 16.064 22.984C15.424 23.96 14.768 25.024 14.096 26.176C14.576 26.272 15.056 26.376 15.536 26.488C16.016 26.6 16.504 26.712 17 26.824Z" fill="white"/>
<path d="M28.7326 36.088C27.8046 36.088 26.9166 35.928 26.0686 35.608C25.2366 35.288 24.5566 34.8 24.0286 34.144C23.5006 33.488 23.2366 32.672 23.2366 31.696C23.2366 30.832 23.4286 30.16 23.8126 29.68C24.1966 29.184 24.6766 28.84 25.2526 28.648C25.8286 28.456 26.3886 28.36 26.9326 28.36C26.4206 28.904 26.0286 29.464 25.7566 30.04C25.5006 30.616 25.3726 31.168 25.3726 31.696C25.3726 32.24 25.5086 32.752 25.7806 33.232C26.0686 33.696 26.4926 34.072 27.0526 34.36C27.6126 34.664 28.3086 34.816 29.1406 34.816C29.8606 34.816 30.5566 34.696 31.2286 34.456C31.9166 34.216 32.4766 33.856 32.9086 33.376C33.3566 32.896 33.5806 32.296 33.5806 31.576C33.5806 30.92 33.3886 30.36 33.0046 29.896C32.6366 29.416 32.1566 28.992 31.5646 28.624C30.9726 28.24 30.3486 27.88 29.6926 27.544C29.0366 27.192 28.4126 26.816 27.8206 26.416C27.2286 26.016 26.7406 25.552 26.3566 25.024C25.9886 24.496 25.8046 23.864 25.8046 23.128C25.8046 22.472 25.9646 21.776 26.2846 21.04C26.6206 20.288 27.0926 19.584 27.7006 18.928C28.3086 18.272 29.0446 17.744 29.9086 17.344C30.7726 16.928 31.7326 16.72 32.7886 16.72C33.8926 16.72 34.6686 16.952 35.1166 17.416C35.5646 17.88 35.7886 18.488 35.7886 19.24C35.7886 19.832 35.6846 20.464 35.4766 21.136C35.2686 21.808 35.0126 22.448 34.7086 23.056C34.4206 23.664 34.1406 24.184 33.8686 24.616C33.5166 24.536 33.2526 24.4 33.0766 24.208C32.9006 24 32.8126 23.728 32.8126 23.392C32.8126 23.056 32.8766 22.68 33.0046 22.264C33.1486 21.848 33.3086 21.416 33.4846 20.968C33.6766 20.52 33.8366 20.088 33.9646 19.672C34.1086 19.24 34.1806 18.864 34.1806 18.544C34.1806 18.256 34.0926 18.032 33.9166 17.872C33.7566 17.712 33.4206 17.632 32.9086 17.632C32.1406 17.632 31.4366 17.8 30.7966 18.136C30.1566 18.472 29.5966 18.896 29.1166 19.408C28.6526 19.92 28.2926 20.464 28.0366 21.04C27.7806 21.6 27.6526 22.112 27.6526 22.576C27.6526 23.152 27.8366 23.648 28.2046 24.064C28.5726 24.464 29.0446 24.832 29.6206 25.168C30.2126 25.504 30.8286 25.84 31.4686 26.176C32.1246 26.512 32.7406 26.888 33.3166 27.304C33.9086 27.72 34.3886 28.216 34.7566 28.792C35.1246 29.368 35.3086 30.072 35.3086 30.904C35.3086 31.736 35.1166 32.472 34.7326 33.112C34.3646 33.752 33.8606 34.288 33.2206 34.72C32.5806 35.168 31.8686 35.504 31.0846 35.728C30.3166 35.968 29.5326 36.088 28.7326 36.088Z" fill="white"/>
<path d="M9.104 36.088L8.63341 36.9704L9.59552 37.4835L10.0237 36.4807L9.104 36.088ZM8.456 32.872L7.53888 32.4733L7.53475 32.483L8.456 32.872ZM9.728 30.352L8.85524 29.8638L9.728 30.352ZM11.528 27.4L12.364 27.9487L13.3064 26.5127L11.5924 26.4021L11.528 27.4ZM10.112 27.328L10.1477 26.3286L10.1477 26.3286L10.112 27.328ZM8 27.304L7.068 26.9416L6.53816 28.304H8V27.304ZM9.056 26.104L9.47893 27.0103L9.49156 27.0042L9.056 26.104ZM11.624 25.792L11.5136 26.7859L11.5193 26.7865L11.624 25.792ZM12.56 25.888L12.4605 26.883L13.0458 26.9416L13.3814 26.4584L12.56 25.888ZM14.912 22.624L14.118 22.0161L14.112 22.024L14.912 22.624ZM17.12 19.864L16.3566 19.2181L16.3555 19.2194L17.12 19.864ZM18.992 17.824L19.6885 18.5416L19.6938 18.5364L19.6991 18.5311L18.992 17.824ZM21.416 16.936L20.8727 17.7756L20.8836 17.7826L20.8946 17.7893L21.416 16.936ZM22.304 17.608L22.9287 18.3889L23.8514 17.6507L22.9708 16.8628L22.304 17.608ZM21.68 18.592L20.7802 18.1557L20.7748 18.1669L20.7696 18.1782L21.68 18.592ZM20.888 20.608L19.9449 20.2752L19.9412 20.2861L20.888 20.608ZM20.048 23.248L19.0902 22.9607L19.088 22.968L19.0859 22.9754L20.048 23.248ZM18.752 29.032L17.7642 28.876L17.7631 28.8833L17.7621 28.8906L18.752 29.032ZM18.752 32.848L17.8235 33.2194L17.8269 33.2278L17.8304 33.2361L18.752 32.848ZM20.768 32.464L20.0507 31.7672L20.0507 31.7672L20.768 32.464ZM22.592 29.728L23.318 29.0403L22.3617 28.0309L21.709 29.2586L22.592 29.728ZM23.024 30.184L23.9594 30.5376L24.181 29.9513L23.75 29.4963L23.024 30.184ZM21.08 33.424L20.3526 32.7377L20.3457 32.7451L21.08 33.424ZM16.928 33.712L16.0251 34.142L16.0292 34.1504L16.928 33.712ZM16.52 29.728L17.5147 29.8309L17.5147 29.8309L16.52 29.728ZM16.76 28L17.747 28.1607L17.9083 27.1701L16.9171 27.0124L16.76 28ZM14.888 27.736L14.7712 28.7292L14.7712 28.7292L14.888 27.736ZM13.328 27.544L13.456 26.5522L12.7883 26.4661L12.4572 27.0523L13.328 27.544ZM11.096 31.768L11.9924 32.2113L11.9924 32.2113L11.096 31.768ZM17 26.824L16.7797 27.7994L17.7603 28.0209L17.9766 27.0392L17 26.824ZM17.72 23.968L16.7608 23.685L16.7579 23.6954L17.72 23.968ZM18.608 21.184L17.6662 20.8476L17.6628 20.8575L18.608 21.184ZM19.544 18.784L20.4621 19.1804L18.9193 18.0031L19.544 18.784ZM17.936 20.44L18.7084 21.0751L18.7084 21.0751L17.936 20.44ZM16.064 22.984L15.234 22.4261L15.2278 22.4356L16.064 22.984ZM14.096 26.176L13.2322 25.6721L12.5265 26.8819L13.8999 27.1566L14.096 26.176ZM26.0686 35.608L25.7096 36.5414L25.7156 36.5436L26.0686 35.608ZM23.8126 29.68L24.5935 30.3047L24.5985 30.2985L24.6033 30.2922L23.8126 29.68ZM25.2526 28.648L25.5689 29.5967L25.5689 29.5967L25.2526 28.648ZM26.9326 28.36L27.6608 29.0454L29.2471 27.36H26.9326V28.36ZM25.7566 30.04L24.8524 29.613L24.8475 29.6234L24.8428 29.6339L25.7566 30.04ZM25.7806 33.232L24.9106 33.725L24.9205 33.7424L24.931 33.7594L25.7806 33.232ZM27.0526 34.36L27.5297 33.4811L27.5199 33.4758L27.51 33.4707L27.0526 34.36ZM31.2286 34.456L30.8992 33.5118L30.8923 33.5143L31.2286 34.456ZM32.9086 33.376L32.1776 32.6937L32.1714 32.7003L32.1653 32.707L32.9086 33.376ZM33.0046 29.896L32.211 30.5044L32.2224 30.5192L32.2342 30.5336L33.0046 29.896ZM31.5646 28.624L31.0204 29.463L31.0285 29.4682L31.0367 29.4733L31.5646 28.624ZM29.6926 27.544L29.2198 28.4252L29.2282 28.4297L29.2367 28.434L29.6926 27.544ZM26.3566 25.024L25.5362 25.5958L25.542 25.604L25.5479 25.6122L26.3566 25.024ZM26.2846 21.04L25.3716 20.632L25.3676 20.6413L26.2846 21.04ZM29.9086 17.344L30.3287 18.2515L30.3356 18.2483L30.3424 18.245L29.9086 17.344ZM35.4766 21.136L34.5213 20.8403L34.5213 20.8403L35.4766 21.136ZM34.7086 23.056L33.8142 22.6088L33.8094 22.6183L33.8049 22.6279L34.7086 23.056ZM33.8686 24.616L33.647 25.5911L34.3375 25.7481L34.7149 25.1488L33.8686 24.616ZM33.0766 24.208L32.3132 24.8539L32.3261 24.8691L32.3395 24.8837L33.0766 24.208ZM33.0046 22.264L32.0596 21.9369L32.054 21.9533L32.0488 21.9699L33.0046 22.264ZM33.4846 20.968L32.5655 20.5741L32.5595 20.5881L32.5539 20.6023L33.4846 20.968ZM33.9646 19.672L33.0159 19.3558L33.0123 19.3668L33.0088 19.3779L33.9646 19.672ZM33.9166 17.872L33.2095 18.5791L33.2263 18.5959L33.244 18.6119L33.9166 17.872ZM30.7966 18.136L31.2615 19.0214L31.2615 19.0214L30.7966 18.136ZM29.1166 19.408L28.3871 18.7241L28.3813 18.7302L28.3756 18.7365L29.1166 19.408ZM28.0366 21.04L28.9462 21.4558L28.9504 21.4461L28.0366 21.04ZM28.2046 24.064L27.4556 24.7266L27.4621 24.7339L27.4687 24.7411L28.2046 24.064ZM29.6206 25.168L29.1167 26.0318L29.127 26.0377L29.6206 25.168ZM31.4686 26.176L31.0038 27.0614L31.0127 27.066L31.4686 26.176ZM33.3166 27.304L32.7311 28.1147L32.7417 28.1222L33.3166 27.304ZM34.7566 28.792L33.9139 29.3304L33.9139 29.3304L34.7566 28.792ZM34.7326 33.112L33.8751 32.5975L33.8704 32.6055L33.8657 32.6135L34.7326 33.112ZM33.2206 34.72L32.6612 33.8912L32.6541 33.8959L32.6472 33.9008L33.2206 34.72ZM31.0846 35.728L30.8099 34.7665L30.7981 34.7699L30.7864 34.7735L31.0846 35.728ZM42 27C42 41.0172 32.8568 52 22 52V54C34.3392 54 44 41.7016 44 27H42ZM22 52C11.1432 52 2 41.0172 2 27H0C0 41.7016 9.66084 54 22 54V52ZM2 27C2 12.9828 11.1432 2 22 2V0C9.66084 0 0 12.2984 0 27H2ZM22 2C32.8568 2 42 12.9828 42 27H44C44 12.2984 34.3392 0 22 0V2ZM9.57459 35.2056C9.3794 35.1015 9.25114 35.012 9.17169 34.943C9.09097 34.8729 9.08512 34.8453 9.09682 34.8702L7.28718 35.7218C7.55572 36.2924 8.09825 36.6849 8.63341 36.9704L9.57459 35.2056ZM9.09682 34.8702C9.05136 34.7736 9.02567 34.7017 9.01199 34.6521C8.99813 34.6018 9 34.5868 9 34.6H7C7 34.999 7.12829 35.3842 7.28718 35.7218L9.09682 34.8702ZM9 34.6C9 34.3694 9.08998 33.9413 9.37725 33.261L7.53475 32.483C7.21402 33.2427 7 33.9666 7 34.6H9ZM9.37307 33.2707C9.67615 32.5736 10.0838 31.7644 10.6008 30.8402L8.85524 29.8638C8.31617 30.8276 7.87585 31.6984 7.53893 32.4733L9.37307 33.2707ZM10.6008 30.8402C11.1159 29.9192 11.7033 28.9555 12.364 27.9487L10.692 26.8513C10.0087 27.8925 9.39615 28.8968 8.85524 29.8638L10.6008 30.8402ZM11.5924 26.4021C11.0878 26.3695 10.6062 26.345 10.1477 26.3286L10.0763 28.3274C10.5138 28.343 10.9762 28.3665 11.4636 28.3979L11.5924 26.4021ZM10.1477 26.3286C9.68311 26.312 9.09403 26.304 8.384 26.304V28.304C9.08197 28.304 9.64489 28.312 10.0763 28.3274L10.1477 26.3286ZM8.384 26.304H8V28.304H8.384V26.304ZM8.932 27.6664C9.07935 27.2876 9.27093 27.1072 9.47889 27.0102L8.63311 25.1978C7.88107 25.5488 7.36865 26.1684 7.068 26.9416L8.932 27.6664ZM9.49156 27.0042C9.82829 26.8412 10.2504 26.744 10.784 26.744V24.744C10.0056 24.744 9.27571 24.8868 8.62044 25.2038L9.49156 27.0042ZM10.784 26.744C11.0168 26.744 11.2599 26.7577 11.5136 26.7859L11.7344 24.7981C11.4121 24.7623 11.0952 24.744 10.784 24.744V26.744ZM11.5193 26.7865C11.8251 26.8187 12.1389 26.8509 12.4605 26.883L12.6595 24.893C12.3411 24.8611 12.0309 24.8293 11.7287 24.7975L11.5193 26.7865ZM13.3814 26.4584C14.1751 25.3155 14.952 24.2374 15.712 23.224L14.112 22.024C13.336 23.0586 12.5449 24.1565 11.7386 25.3176L13.3814 26.4584ZM15.706 23.2319C16.4824 22.2179 17.2085 21.3104 17.8845 20.5086L16.3555 19.2194C15.6555 20.0496 14.9096 20.9821 14.118 22.0161L15.706 23.2319ZM17.8834 20.5099C18.5745 19.6931 19.1756 19.0394 19.6885 18.5416L18.2955 17.1064C17.7204 17.6646 17.0735 18.3709 16.3566 19.2181L17.8834 20.5099ZM19.6991 18.5311C20.0621 18.1681 20.3451 17.9277 20.5535 17.7847C20.6568 17.7139 20.7235 17.6798 20.7571 17.6656C20.7945 17.6499 20.7597 17.672 20.672 17.672V15.672C20.1792 15.672 19.7385 15.9185 19.4225 16.1353C19.0709 16.3763 18.6899 16.7119 18.2849 17.1169L19.6991 18.5311ZM20.672 17.672C20.6521 17.672 20.6566 17.668 20.6916 17.6804C20.7276 17.6932 20.7877 17.7206 20.8727 17.7756L21.9593 16.0964C21.5939 15.86 21.1567 15.672 20.672 15.672V17.672ZM20.8946 17.7893C21.1216 17.928 21.3693 18.1135 21.6372 18.3532L22.9708 16.8628C22.6307 16.5585 22.2864 16.296 21.9374 16.0827L20.8946 17.7893ZM21.6793 16.8271C21.467 16.997 21.3036 17.2251 21.1835 17.4145C21.0518 17.6222 20.9173 17.8729 20.7802 18.1557L22.5798 19.0283C22.6987 18.7831 22.7962 18.6058 22.8725 18.4855C22.9103 18.426 22.9373 18.3893 22.9532 18.3695C22.9714 18.347 22.9636 18.3609 22.9287 18.3889L21.6793 16.8271ZM20.7696 18.1782C20.5133 18.7421 20.2385 19.4437 19.945 20.2752L21.831 20.9408C22.1135 20.1403 22.3667 19.4978 22.5904 19.0058L20.7696 18.1782ZM19.9412 20.2861C19.6647 21.0994 19.381 21.9911 19.0902 22.9607L21.0058 23.5353C21.291 22.5849 21.5673 21.7166 21.8348 20.9299L19.9412 20.2861ZM19.0859 22.9754C18.8089 23.953 18.5564 24.9465 18.3286 25.9557L20.2794 26.3963C20.4996 25.4215 20.7431 24.4629 21.0101 23.5206L19.0859 22.9754ZM18.3286 25.9557C18.1002 26.9669 17.912 27.9404 17.7642 28.876L19.7398 29.188C19.88 28.2996 20.0598 27.3691 20.2794 26.3963L18.3286 25.9557ZM17.7621 28.8906C17.6293 29.8197 17.56 30.6606 17.56 31.408H19.56C19.56 30.7794 19.6187 30.0363 19.742 29.1734L17.7621 28.8906ZM17.56 31.408C17.56 32.0852 17.6236 32.7195 17.8235 33.2194L19.6805 32.4766C19.6244 32.3365 19.56 32.0108 19.56 31.408H17.56ZM17.8304 33.2361C17.9491 33.5181 18.1391 33.7999 18.4345 34.0078C18.7355 34.2196 19.0741 34.304 19.4 34.304V32.304C19.4219 32.304 19.5005 32.3124 19.5855 32.3722C19.6649 32.4281 19.6829 32.4819 19.6736 32.4599L17.8304 33.2361ZM19.4 34.304C19.8344 34.304 20.2232 34.1415 20.5413 33.9462C20.8644 33.7477 21.1793 33.4758 21.4853 33.1608L20.0507 31.7672C19.8127 32.0122 19.6276 32.1603 19.4947 32.2418C19.3568 32.3265 19.3336 32.304 19.4 32.304V34.304ZM21.4853 33.1608C22.1284 32.4988 22.789 31.4877 23.475 30.1974L21.709 29.2586C21.051 30.4963 20.4956 31.3092 20.0507 31.7672L21.4853 33.1608ZM21.866 30.4157L22.2981 30.8717L23.75 29.4963L23.318 29.0403L21.866 30.4157ZM22.0886 29.8304C21.63 31.0434 21.0456 32.0032 20.3526 32.7378L21.8074 34.1102C22.7144 33.1488 23.426 31.9486 23.9594 30.5376L22.0886 29.8304ZM20.3457 32.7451C19.6931 33.451 19.102 33.696 18.56 33.696V35.696C19.81 35.696 20.8989 35.093 21.8143 34.1029L20.3457 32.7451ZM18.56 33.696C18.3198 33.696 18.1788 33.6457 18.0923 33.5936C18.009 33.5434 17.9152 33.4548 17.8268 33.2736L16.0292 34.1504C16.2608 34.6252 16.599 35.0286 17.0597 35.3064C17.5172 35.5823 18.0322 35.696 18.56 35.696V33.696ZM17.8309 33.2821C17.6003 32.7978 17.448 32.0527 17.448 30.976H15.448C15.448 32.2033 15.6157 33.2822 16.0251 34.1419L17.8309 33.2821ZM17.448 30.976C17.448 30.65 17.4693 30.2693 17.5147 29.8309L15.5253 29.6251C15.4747 30.1147 15.448 30.566 15.448 30.976H17.448ZM17.5147 29.8309C17.56 29.3931 17.6368 28.8379 17.747 28.1607L15.773 27.8393C15.6592 28.5381 15.576 29.1349 15.5253 29.6251L17.5147 29.8309ZM16.9171 27.0124C16.2035 26.8989 15.5656 26.8088 15.0048 26.7428L14.7712 28.7292C15.2984 28.7912 15.9085 28.8771 16.6029 28.9876L16.9171 27.0124ZM15.0048 26.7428C14.4642 26.6792 13.9479 26.6157 13.456 26.5522L13.2 28.5358C13.7001 28.6003 14.2238 28.6648 14.7712 28.7292L15.0048 26.7428ZM12.4572 27.0523C11.6799 28.4288 10.9274 29.853 10.1996 31.3247L11.9924 32.2113C12.7046 30.771 13.4401 29.3792 14.1988 28.0357L12.4572 27.0523ZM10.1996 31.3247C9.47178 32.7966 8.79996 34.2534 8.18432 35.6953L10.0237 36.4807C10.624 35.0746 11.2802 33.6514 11.9924 32.2113L10.1996 31.3247ZM17.9766 27.0392C18.1802 26.1151 18.4153 25.1822 18.6821 24.2406L16.7579 23.6954C16.4807 24.6738 16.2358 25.6449 16.0234 26.6088L17.9766 27.0392ZM18.6791 24.251C18.9632 23.2883 19.2546 22.3749 19.5532 21.5105L17.6628 20.8575C17.3534 21.7531 17.0528 22.6957 16.7609 23.685L18.6791 24.251ZM19.5497 21.5203C19.8641 20.64 20.1683 19.8606 20.4621 19.1804L18.6259 18.3876C18.3117 19.1154 17.9919 19.936 17.6663 20.8477L19.5497 21.5203ZM18.9193 18.0031C18.365 18.4466 17.7795 19.0558 17.1636 19.8049L18.7084 21.0751C19.2765 20.3842 19.763 19.8894 20.1687 19.5649L18.9193 18.0031ZM17.1636 19.8049C16.5467 20.5551 15.9036 21.43 15.234 22.4262L16.894 23.5418C17.5364 22.586 18.1413 21.7649 18.7084 21.0751L17.1636 19.8049ZM15.2278 22.4356C14.577 23.4281 13.9118 24.5071 13.2322 25.6721L14.9598 26.6799C15.6242 25.5409 16.271 24.4919 16.9002 23.5324L15.2278 22.4356ZM13.8999 27.1566C14.3694 27.2505 14.839 27.3522 15.3088 27.4618L15.7632 25.5142C15.273 25.3998 14.7826 25.2935 14.2921 25.1954L13.8999 27.1566ZM15.3088 27.4618C15.7912 27.5744 16.2815 27.6869 16.7797 27.7994L17.2203 25.8486C16.7265 25.7371 16.2408 25.6256 15.7632 25.5142L15.3088 27.4618ZM28.7326 35.088C27.9223 35.088 27.1541 34.9488 26.4217 34.6724L25.7156 36.5436C26.6791 36.9072 27.687 37.088 28.7326 37.088V35.088ZM26.4276 34.6747C25.7502 34.4141 25.2185 34.0275 24.8076 33.517L23.2496 34.771C23.8947 35.5725 24.7231 36.1619 25.7096 36.5413L26.4276 34.6747ZM24.8076 33.517C24.4448 33.0662 24.2366 32.4819 24.2366 31.696H22.2366C22.2366 32.8621 22.5564 33.9098 23.2496 34.771L24.8076 33.517ZM24.2366 31.696C24.2366 30.9686 24.3991 30.5477 24.5935 30.3047L23.0318 29.0553C22.4582 29.7723 22.2366 30.6954 22.2366 31.696H24.2366ZM24.6033 30.2922C24.8703 29.9474 25.1874 29.7238 25.5689 29.5967L24.9364 27.6993C24.1659 27.9562 23.523 28.4206 23.0219 29.0678L24.6033 30.2922ZM25.5689 29.5967C26.0546 29.4348 26.5078 29.36 26.9326 29.36V27.36C26.2694 27.36 25.6026 27.4772 24.9364 27.6993L25.5689 29.5967ZM26.2044 27.6746C25.6327 28.2821 25.1761 28.9274 24.8524 29.613L26.6609 30.467C26.8811 30.0006 27.2086 29.5259 27.6608 29.0454L26.2044 27.6746ZM24.8428 29.6339C24.5408 30.3133 24.3726 31.0037 24.3726 31.696H26.3726C26.3726 31.3323 26.4604 30.9187 26.6704 30.4461L24.8428 29.6339ZM24.3726 31.696C24.3726 32.4154 24.5547 33.0969 24.9106 33.725L26.6506 32.739C26.4626 32.4071 26.3726 32.0646 26.3726 31.696H24.3726ZM24.931 33.7594C25.3284 34.3996 25.8992 34.8913 26.5953 35.2493L27.51 33.4707C27.086 33.2527 26.8089 32.9924 26.6303 32.7046L24.931 33.7594ZM26.5755 35.2389C27.32 35.643 28.1913 35.816 29.1406 35.816V33.816C28.4259 33.816 27.9053 33.685 27.5297 33.4811L26.5755 35.2389ZM29.1406 35.816C29.9742 35.816 30.784 35.6766 31.565 35.3977L30.8923 33.5143C30.3292 33.7154 29.7471 33.816 29.1406 33.816V35.816ZM31.558 35.4002C32.3842 35.112 33.0935 34.6654 33.6519 34.045L32.1653 32.707C31.8598 33.0466 31.449 33.32 30.8993 33.5118L31.558 35.4002ZM33.6397 34.0583C34.2778 33.3746 34.5806 32.5227 34.5806 31.576H32.5806C32.5806 32.0693 32.4354 32.4174 32.1776 32.6937L33.6397 34.0583ZM34.5806 31.576C34.5806 30.7095 34.321 29.9182 33.775 29.2584L32.2342 30.5336C32.4562 30.8018 32.5806 31.1305 32.5806 31.576H34.5806ZM33.7982 29.2876C33.3466 28.6985 32.7715 28.1968 32.0926 27.7747L31.0367 29.4733C31.5417 29.7872 31.9266 30.1335 32.211 30.5044L33.7982 29.2876ZM32.1088 27.785C31.487 27.3817 30.8335 27.0048 30.1485 26.654L29.2367 28.434C29.8638 28.7552 30.4582 29.0983 31.0204 29.463L32.1088 27.785ZM30.1654 26.6628C29.5381 26.3262 28.9432 25.9676 28.3805 25.5874L27.2608 27.2446C27.882 27.6644 28.5352 28.0578 29.2198 28.4252L30.1654 26.6628ZM28.3805 25.5874C27.8757 25.2463 27.4748 24.8614 27.1654 24.4358L25.5479 25.6122C26.0064 26.2426 26.5815 26.7857 27.2608 27.2446L28.3805 25.5874ZM27.177 24.4522C26.9422 24.1153 26.8046 23.6899 26.8046 23.128H24.8046C24.8046 24.0381 25.0351 24.8767 25.5362 25.5958L27.177 24.4522ZM26.8046 23.128C26.8046 22.6362 26.9245 22.0763 27.2017 21.4387L25.3676 20.6413C25.0048 21.4757 24.8046 22.3078 24.8046 23.128H26.8046ZM27.1976 21.4479C27.4854 20.804 27.894 20.1905 28.4341 19.6078L26.9672 18.2482C26.2913 18.9775 25.7559 19.772 25.3716 20.6321L27.1976 21.4479ZM28.4341 19.6078C28.9478 19.0534 29.5753 18.6003 30.3287 18.2515L29.4885 16.4365C28.5139 16.8877 27.6694 17.4906 26.9672 18.2482L28.4341 19.6078ZM30.3424 18.245C31.0579 17.9005 31.8674 17.72 32.7886 17.72V15.72C31.5978 15.72 30.4874 15.9555 29.4748 16.443L30.3424 18.245ZM32.7886 17.72C33.8027 17.72 34.2345 17.9421 34.3972 18.1106L35.836 16.7214C35.1027 15.9619 33.9825 15.72 32.7886 15.72V17.72ZM34.3972 18.1106C34.6355 18.3574 34.7886 18.701 34.7886 19.24H36.7886C36.7886 18.275 36.4937 17.4026 35.836 16.7214L34.3972 18.1106ZM34.7886 19.24C34.7886 19.715 34.7051 20.2466 34.5213 20.8403L36.4319 21.4317C36.6641 20.6814 36.7886 19.949 36.7886 19.24H34.7886ZM34.5213 20.8403C34.3289 21.462 34.093 22.0512 33.8142 22.6088L35.6031 23.5032C35.9323 22.8448 36.2083 22.154 36.4319 21.4317L34.5213 20.8403ZM33.8049 22.6279C33.5289 23.2105 33.2677 23.6936 33.0224 24.0832L34.7149 25.1488C35.0135 24.6744 35.3123 24.1175 35.6124 23.4841L33.8049 22.6279ZM34.0902 23.6409C33.8623 23.5891 33.8086 23.5266 33.8138 23.5323L32.3395 24.8837C32.6966 25.2734 33.171 25.4829 33.647 25.5911L34.0902 23.6409ZM33.84 23.5621C33.8392 23.5611 33.8385 23.5601 33.8373 23.5581C33.8362 23.556 33.8334 23.5505 33.8301 23.5402C33.8233 23.5193 33.8126 23.4733 33.8126 23.392H31.8126C31.8126 23.9074 31.9512 24.4261 32.3132 24.8539L33.84 23.5621ZM33.8126 23.392C33.8126 23.1801 33.8536 22.9053 33.9604 22.5581L32.0488 21.9699C31.8997 22.4547 31.8126 22.9319 31.8126 23.392H33.8126ZM33.9496 22.5911C34.0887 22.1892 34.2439 21.7701 34.4154 21.3337L32.5539 20.6023C32.3733 21.0619 32.2085 21.5068 32.0596 21.9369L33.9496 22.5911ZM34.4038 21.3619C34.6081 20.8851 34.7808 20.4197 34.9204 19.9661L33.0088 19.3779C32.8924 19.7563 32.7451 20.1549 32.5655 20.5741L34.4038 21.3619ZM34.9133 19.9882C35.0781 19.4937 35.1806 19.0064 35.1806 18.544H33.1806C33.1806 18.7216 33.1391 18.9863 33.0159 19.3558L34.9133 19.9882ZM35.1806 18.544C35.1806 18.0386 35.0171 17.5209 34.5893 17.1321L33.244 18.6119C33.2322 18.6012 33.2196 18.5873 33.2081 18.5705C33.1966 18.5538 33.1888 18.5381 33.1839 18.5257C33.1741 18.5007 33.1806 18.5011 33.1806 18.544H35.1806ZM34.6237 17.1649C34.3612 16.9023 34.0366 16.7812 33.7762 16.7192C33.5055 16.6547 33.209 16.632 32.9086 16.632V18.632C33.1202 18.632 33.2478 18.6493 33.313 18.6648C33.3435 18.6721 33.3452 18.6754 33.3281 18.6672C33.3106 18.6587 33.2637 18.6333 33.2095 18.5791L34.6237 17.1649ZM32.9086 16.632C31.9891 16.632 31.1241 16.8346 30.3318 17.2506L31.2615 19.0214C31.7491 18.7654 32.2922 18.632 32.9086 18.632V16.632ZM30.3318 17.2506C29.5959 17.6369 28.9457 18.1282 28.3871 18.7241L29.8462 20.0919C30.2475 19.6638 30.7173 19.3071 31.2615 19.0214L30.3318 17.2506ZM28.3756 18.7365C27.8471 19.3197 27.4259 19.9519 27.1228 20.6339L28.9504 21.4461C29.1593 20.9761 29.4581 20.5203 29.8576 20.0795L28.3756 18.7365ZM27.1272 20.6242C26.8301 21.2741 26.6526 21.9297 26.6526 22.576H28.6526C28.6526 22.2943 28.7312 21.9259 28.9461 21.4558L27.1272 20.6242ZM26.6526 22.576C26.6526 23.3862 26.9194 24.1205 27.4556 24.7266L28.9536 23.4014C28.7538 23.1755 28.6526 22.9178 28.6526 22.576H26.6526ZM27.4687 24.7411C27.9176 25.229 28.4733 25.6564 29.1168 26.0318L30.1245 24.3042C29.616 24.0076 29.2277 23.699 28.9406 23.3869L27.4687 24.7411ZM29.127 26.0377C29.7291 26.3794 30.3547 26.7206 31.0038 27.0614L31.9335 25.2906C31.3025 24.9594 30.6962 24.6286 30.1142 24.2983L29.127 26.0377ZM31.0127 27.066C31.6253 27.3798 32.1978 27.7295 32.7311 28.1147L33.9021 26.4933C33.2835 26.0465 32.624 25.6442 31.9245 25.286L31.0127 27.066ZM32.7417 28.1222C33.2334 28.4677 33.6201 28.8705 33.9139 29.3304L35.5993 28.2536C35.1571 27.5614 34.5839 26.9723 33.8916 26.4858L32.7417 28.1222ZM33.9139 29.3304C34.1589 29.7138 34.3086 30.2211 34.3086 30.904H36.3086C36.3086 29.9229 36.0904 29.0222 35.5993 28.2536L33.9139 29.3304ZM34.3086 30.904C34.3086 31.5761 34.1555 32.1303 33.8751 32.5975L35.5901 33.6265C36.0778 32.8137 36.3086 31.8959 36.3086 30.904H34.3086ZM33.8657 32.6135C33.5772 33.1153 33.1808 33.5404 32.6612 33.8912L33.7801 35.5488C34.5405 35.0356 35.1521 34.3887 35.5995 33.6105L33.8657 32.6135ZM32.6472 33.9008C32.1021 34.2823 31.4918 34.5716 30.8099 34.7665L31.3593 36.6895C32.2454 36.4364 33.0592 36.0537 33.7941 35.5392L32.6472 33.9008ZM30.7864 34.7735C30.1143 34.9835 29.4309 35.088 28.7326 35.088V37.088C29.6344 37.088 30.5189 36.9525 31.3829 36.6825L30.7864 34.7735Z" fill="white" mask="url(#path-1-outside-1_36_152)"/>
</svg>
